# Blender 3.4.1
# www.blender.org
mtllib Sink.mtl
o Sink
v 21.209925 160.254959 3.762440
v 24.350903 158.238159 0.000025
v 23.900152 160.739685 0.000025
v 21.660677 157.753418 -3.762390
v 21.209925 160.254959 -3.762389
v 17.307793 156.969070 -2.325275
v 16.857044 159.470627 -2.325275
v 17.307793 156.969070 2.325324
v 16.857044 159.470627 2.325325
v 21.660677 157.753418 3.762439
v -5.343881 141.088852 0.000022
v -4.983103 163.876434 0.000026
v -7.525315 141.088852 -5.266421
v -7.164535 163.876434 -5.266417
v -12.791759 141.088852 -7.447853
v -12.791759 163.876434 -7.447849
v -18.058201 141.088852 -5.266421
v -18.058201 163.876434 -5.266417
v -20.239634 141.088852 0.000022
v -20.239634 163.876434 0.000026
v -18.058201 141.088852 5.266465
v -18.058201 163.876434 5.266469
v -12.791759 141.088852 7.447897
v -12.791759 163.876434 7.447901
v -7.525315 141.088852 5.266465
v -7.164535 163.876434 5.266469
v 2.371818 154.968689 0.000024
v 0.190387 154.968689 -5.266418
v -12.791759 153.037766 -7.447851
v -18.058201 153.037766 -5.266419
v -20.239634 153.037766 0.000024
v -18.058201 153.037766 5.266467
v -12.791759 153.037766 7.447899
v 0.190387 154.968689 5.266467
v 24.845377 166.154648 0.000026
v 23.261484 166.154648 -4.910648
v 23.261484 166.154648 4.910700
v 24.845377 160.103058 0.000025
v 23.261484 160.103058 -4.910649
v 23.261484 160.103058 4.910699
v -3.756748 169.558655 0.000027
v -5.938180 169.558655 -4.228246
v -12.791759 169.558655 -7.447848
v -18.058201 169.558655 -5.266416
v -20.239634 169.558655 0.000027
v -18.058201 169.558655 5.266469
v -12.791759 169.558655 7.447902
v -5.938180 169.558655 4.228299
v -4.983103 172.857086 0.000027
v -7.164535 172.857086 -4.228245
v -12.791759 172.857086 -7.447848
v -18.058201 172.857086 -5.266416
v -20.239634 172.857086 0.000027
v -18.058201 172.857086 5.266470
v -12.791759 172.857086 7.447902
v -7.164535 172.857086 4.228300
v 19.694681 171.630219 0.000027
v 18.211103 171.630219 -4.090875
v 18.211103 171.630219 4.090930
v 19.694681 174.928665 0.000027
v 18.211103 174.928665 -4.090875
v 18.211103 174.928665 4.090930
v -17.946751 -0.000002 12.476357
v -16.163477 114.315506 12.476377
v 2.342522 -0.000001 8.017298
v 2.342522 114.315506 8.017317
v 2.342523 0.000001 -8.017299
v 2.342523 114.315506 -8.017280
v -17.946751 0.000002 -12.476357
v -16.163477 114.315506 -12.476338
v -16.925743 21.353937 11.415871
v -0.505236 21.353937 7.335831
v -0.505236 21.353941 -7.335824
v -16.925743 21.353941 -11.415863
v -16.163477 57.416828 9.074078
v -2.669543 57.399055 5.830999
v -2.669543 57.399055 -5.830980
v -16.163477 57.416828 -9.074059
v -16.163477 90.338631 9.772413
v -1.668220 90.338631 6.279752
v -1.668220 90.338631 -6.279722
v -16.163477 90.338631 -9.772385
v -16.857615 125.658913 37.593765
v 45.855255 125.658913 24.157736
v 45.855255 125.658928 -24.157696
v -16.857615 125.658928 -37.593727
v -18.861469 135.582031 53.226254
v 59.723518 135.582047 34.203159
v 59.723518 135.582047 -34.203117
v -18.861469 135.582062 -53.226208
v -20.159786 142.382034 54.269070
v 60.514442 140.237762 37.523849
v 60.514442 140.237762 -37.523804
v -20.159786 142.382065 -54.269024
v 0.870338 142.382050 40.377716
v 55.914440 142.382050 33.962414
v 55.914440 142.382050 -33.962368
v 0.870338 142.382050 -40.377670
v 2.215197 135.382050 36.380325
v 50.183350 135.382050 30.600136
v 50.183353 135.382050 -30.600092
v 2.215197 135.382050 -36.380280
v 3.919322 128.402039 27.503529
v 38.250446 128.402039 23.133707
v 38.250446 128.402039 -23.133665
v 3.919322 128.402039 -27.503487
v 5.584421 119.702042 12.463323
v 24.590158 120.820541 11.636264
v 24.590158 120.820541 -11.636224
v 5.584421 119.702042 -12.463284
v -7.802114 -0.000002 12.724196
v -6.910478 114.315506 12.724216
v -7.802114 0.000002 -12.724196
v -6.910477 114.315506 -12.724177
v -8.715490 21.353937 11.642644
v -8.715490 21.353941 -11.642636
v -9.416510 57.407940 9.254332
v -9.416510 57.407940 -9.254313
v -8.915849 90.338631 9.966539
v -8.915849 90.338631 -9.966511
v 14.498820 125.658913 38.340553
v 14.498820 125.658928 -38.340515
v 20.177326 135.582031 54.283577
v 20.177328 135.582062 -54.283531
v 20.177326 142.382034 59.553814
v 20.177328 142.382065 -59.553768
v 27.060539 142.382050 43.672241
v 27.060541 142.382050 -43.672195
v 24.867424 135.382050 39.348690
v 24.867426 135.382050 -39.348648
v 20.791111 128.402039 29.747616
v 20.791111 128.402039 -29.747574
v 15.087289 120.261292 14.963060
v 15.087290 120.261292 -14.963020
v -18.098246 0.000000 0.000000
v -16.016148 114.315506 0.000019
v 5.617854 0.000000 0.000000
v 5.617854 114.315506 0.000019
v -16.906147 21.353939 0.000003
v 2.770095 21.353939 0.000003
v -16.016148 57.416828 0.000009
v 0.605789 57.399055 0.000009
v -16.016148 90.338631 0.000015
v 1.607112 90.338631 0.000015
v -18.761547 125.658920 0.000020
v 47.898956 125.425407 0.000020
v -20.870333 135.582047 0.000022
v 66.609344 135.582047 0.000021
v -21.925865 142.382050 0.000023
v 67.537987 140.237762 0.000022
v -2.955225 142.382050 0.000023
v 62.137032 142.382050 0.000022
v -1.376198 135.382050 0.000022
v 55.408035 135.382050 0.000021
v 0.986154 128.402039 0.000021
v 41.397362 128.402039 0.000021
v 3.349043 119.702042 0.000020
v 25.664083 120.820541 0.000020
v -7.802114 0.000000 0.000000
v 14.506563 120.261292 0.000020
v -2.729796 -0.000002 11.611916
v -2.283978 114.315506 11.611935
v -2.729796 0.000002 -11.611916
v -2.283977 114.315506 -11.611897
v -4.610363 21.353937 10.624907
v -4.610363 21.353941 -10.624899
v -6.043027 57.403500 8.445369
v -6.043026 57.403500 -8.445350
v -5.292034 90.338631 9.095320
v -5.292034 90.338631 -9.095291
v 30.177036 125.658913 34.989033
v 30.177038 125.658928 -34.988995
v 39.950420 135.582031 49.538399
v 39.950424 135.582062 -49.538357
v 40.345882 141.309891 54.347942
v 40.345886 141.309921 -54.347897
v 41.487492 142.382050 43.462971
v 41.487492 142.382050 -43.462929
v 37.525387 135.382050 39.160141
v 37.525387 135.382050 -39.160095
v 29.520779 128.402039 29.605070
v 29.520781 128.402039 -29.605028
v 19.838724 120.540916 14.891360
v 19.838724 120.540916 -14.891320
v -1.092130 0.000000 0.000000
v 20.085323 120.540916 0.000020
vn 0.1773 -0.9842 -0.0000
vn 0.7962 0.1435 -0.5878
vn -0.3041 -0.0548 0.9511
vn -0.3041 -0.0548 -0.9511
vn 0.7962 0.1435 0.5878
vn -0.9842 -0.1773 -0.0000
vn -0.3827 -0.0000 -0.9239
vn 0.8218 -0.4569 -0.3404
vn 0.4568 0.0849 0.8855
vn -0.9239 -0.0000 -0.3827
vn 0.2194 0.0817 -0.9722
vn 0.9401 -0.0000 0.3409
vn -0.9239 -0.0000 0.3827
vn 0.0868 -0.9955 -0.0382
vn -0.3827 -0.0000 0.9239
vn 0.0055 0.0010 -1.0000
vn -0.0000 1.0000 -0.0000
vn -0.0825 0.9959 0.0364
vn 0.0868 -0.9955 0.0382
vn 0.2391 -0.0714 0.9684
vn -0.0825 0.9959 -0.0364
vn 0.9517 -0.0000 0.3070
vn 0.0055 0.0010 1.0000
vn 0.9517 -0.0000 -0.3070
vn 0.2391 -0.0714 -0.9684
vn 0.2194 0.0817 0.9722
vn 0.8218 -0.4569 0.3404
vn 0.2198 -0.9721 0.0813
vn -0.0755 0.9968 -0.0279
vn 0.0125 0.0061 0.9999
vn 0.2198 -0.9721 -0.0813
vn 0.0125 0.0061 -0.9999
vn -0.0755 0.9968 0.0279
vn 0.8975 -0.1560 -0.4124
vn 0.3968 0.0409 -0.9170
vn 0.3968 0.0409 0.9170
vn 0.8975 -0.1560 0.4124
vn 0.9401 -0.0000 -0.3409
vn 0.4568 0.0849 -0.8855
vn -0.0258 0.0501 0.9984
vn 0.9122 0.1279 -0.3892
vn 0.2257 0.0619 -0.9722
vn -0.9999 0.0007 0.0132
vn -0.0547 0.9985 -0.0056
vn -0.0000 -1.0000 -0.0000
vn 0.6181 0.0708 0.7829
vn 0.8935 0.0629 0.4445
vn -0.0271 0.0654 -0.9975
vn -0.9986 0.0519 0.0055
vn -0.9997 0.0226 0.0081
vn -0.0267 -0.0212 0.9994
vn 0.8792 -0.0300 -0.4755
vn 0.2334 -0.0245 -0.9721
vn -0.9999 0.0002 0.0156
vn -0.0266 -0.1120 0.9933
vn 0.8967 -0.1649 0.4108
vn 0.6058 -0.1579 -0.7798
vn 0.1652 -0.9584 0.2326
vn 0.2445 -0.9685 -0.0475
vn -0.0101 -0.9113 -0.4116
vn -0.9818 -0.1870 0.0344
vn 0.3005 -0.8625 0.4071
vn 0.5048 -0.8594 0.0807
vn -0.0137 -0.8459 -0.5332
vn -0.9713 -0.2342 0.0418
vn 0.1738 -0.6207 0.7646
vn 0.9526 -0.2418 -0.1847
vn -0.0721 -0.4256 -0.9020
vn -0.9843 -0.1730 0.0346
vn 0.3723 0.9255 -0.0690
vn -0.0125 0.5285 -0.8488
vn -0.7253 0.6764 0.1286
vn 0.1099 0.5029 0.8573
vn 0.9689 0.2291 -0.0936
vn -0.2770 0.8763 -0.3942
vn -0.4567 0.8868 0.0712
vn 0.0801 0.7904 0.6074
vn 0.9377 0.3340 -0.0958
vn -0.2484 0.9150 -0.3179
vn -0.4412 0.8958 0.0536
vn 0.0712 0.8644 0.4977
vn 0.9388 0.3223 -0.1214
vn 0.5972 0.0972 0.7962
vn -0.0258 0.0501 -0.9984
vn -0.0541 0.9985 -0.0006
vn -0.0271 0.0654 0.9975
vn 0.2368 0.0684 -0.9692
vn 0.2334 -0.0245 0.9721
vn -0.0267 -0.0212 -0.9994
vn 0.2318 -0.1303 0.9640
vn -0.0266 -0.1120 -0.9933
vn -0.0101 -0.9113 0.4116
vn 0.0766 -0.9342 -0.3484
vn -0.0137 -0.8459 0.5332
vn 0.1143 -0.8581 -0.5006
vn -0.0721 -0.4256 0.9020
vn 0.5076 -0.5664 -0.6493
vn 0.1645 0.9704 0.1767
vn 0.1645 0.9704 -0.1767
vn 0.1099 0.5029 -0.8573
vn -0.4249 0.6430 0.6372
vn 0.0801 0.7904 -0.6074
vn -0.2770 0.8763 0.3942
vn 0.0712 0.8644 -0.4977
vn -0.0258 0.8843 0.4663
vn 0.9122 0.1279 0.3892
vn -0.9999 0.0007 -0.0132
vn -0.0547 0.9985 0.0056
vn 0.8935 0.0629 -0.4445
vn -0.9986 0.0519 -0.0055
vn -0.9997 0.0226 -0.0081
vn 0.8792 -0.0300 0.4755
vn -0.9999 0.0002 -0.0156
vn 0.8967 -0.1649 -0.4108
vn 0.2445 -0.9685 0.0475
vn -0.9818 -0.1870 -0.0344
vn 0.5048 -0.8594 -0.0807
vn -0.9713 -0.2342 -0.0418
vn 0.9526 -0.2418 0.1847
vn -0.9843 -0.1730 -0.0346
vn 0.3723 0.9255 0.0690
vn -0.7253 0.6764 -0.1286
vn 0.9689 0.2291 0.0936
vn -0.4567 0.8868 -0.0712
vn 0.9377 0.3340 0.0958
vn -0.4412 0.8958 -0.0536
vn 0.9388 0.3223 0.1214
vn -0.0549 0.9985 -0.0027
vn 0.5972 0.0972 -0.7962
vn 0.2368 0.0684 0.9692
vn 0.6128 -0.0295 -0.7897
vn 0.2318 -0.1303 -0.9640
vn 0.0766 -0.9342 0.3484
vn 0.1143 -0.8581 0.5006
vn 0.5076 -0.5664 0.6493
vn -0.4249 0.6430 -0.6372
vn -0.0091 0.8108 -0.5852
vn -0.0258 0.8843 -0.4663
vn 0.2257 0.0619 0.9722
vn -0.0549 0.9985 0.0027
vn 0.6181 0.0708 -0.7829
vn 0.6128 -0.0295 0.7897
vn 0.6058 -0.1579 0.7798
vn 0.1652 -0.9584 -0.2326
vn 0.3005 -0.8625 -0.4071
vn 0.1738 -0.6207 -0.7646
vn 0.0390 0.9979 0.0517
vn 0.0390 0.9979 -0.0517
vn -0.0125 0.5285 0.8488
vn -0.0091 0.8108 0.5852
vn -0.2484 0.9150 0.3179
vn -0.0541 0.9985 0.0006
vt 0.014834 0.700984
vt 0.057270 0.679974
vt 0.070478 0.701053
vt 0.062728 0.657525
vt 0.092187 0.647130
vt 0.046210 0.642133
vt 0.044325 0.616868
vt 0.026683 0.655076
vt 0.005701 0.647307
vt 0.033667 0.677667
vt 0.397114 0.415579
vt 0.712008 0.263988
vt 0.459463 0.023834
vt 0.374555 0.411193
vt 0.871526 0.204490
vt 0.716706 0.310883
vt 0.726991 0.269922
vt 0.487047 0.021451
vt 0.883990 0.177797
vt 0.854055 0.204582
vt 0.698944 0.311611
vt 0.864919 0.178004
vt 0.836585 0.204674
vt 0.682169 0.312298
vt 0.846908 0.178201
vt 0.819115 0.204766
vt 0.665393 0.312986
vt 0.883734 0.256956
vt 0.828896 0.178397
vt 0.739327 0.178610
vt 0.801645 0.204857
vt 0.866971 0.257672
vt 0.757340 0.178473
vt 0.784175 0.204950
vt 0.850208 0.258388
vt 0.775354 0.178335
vt 0.766705 0.205041
vt 0.419716 0.411418
vt 0.697202 0.270351
vt 0.832460 0.259147
vt 0.794426 0.178190
vt 0.431869 0.021596
vt 0.396795 0.479600
vt 0.272198 0.971445
vt 0.374236 0.475214
vt 0.894556 0.247366
vt 0.264693 0.989874
vt 0.736659 0.283325
vt 0.854248 0.241203
vt 0.697637 0.279715
vt 0.680861 0.280403
vt 0.836777 0.241294
vt 0.664085 0.281091
vt 0.819308 0.241386
vt 0.885096 0.288830
vt 0.868333 0.289546
vt 0.801837 0.241477
vt 0.784367 0.241570
vt 0.851569 0.290262
vt 0.744125 0.248156
vt 0.419396 0.475440
vt 0.264855 0.952953
vt 0.812567 0.286723
vt 0.954329 0.071696
vt 0.710789 0.179422
vt 0.977435 0.071751
vt 0.806575 0.311892
vt 0.724740 0.183686
vt 0.931222 0.071640
vt 0.696968 0.184086
vt 0.742649 0.258294
vt 0.954393 0.044595
vt 0.352670 0.971798
vt 0.977500 0.044651
vt 0.347205 0.988961
vt 0.805444 0.294104
vt 0.931287 0.044540
vt 0.347356 0.954591
vt 0.743810 0.276068
vt 0.338772 0.292010
vt 0.459538 0.052066
vt 0.355926 0.283151
vt 0.482532 0.049770
vt 0.889042 0.195759
vt 0.109114 0.304253
vt 0.865115 0.195959
vt 0.072201 0.305248
vt 0.044409 0.305822
vt 0.847104 0.196155
vt 0.016617 0.306395
vt 0.016036 0.279836
vt 0.829092 0.196352
vt 0.739464 0.196566
vt 0.043783 0.279025
vt 0.757477 0.196429
vt 0.071530 0.278214
vt 0.775491 0.196291
vt 0.321578 0.283232
vt 0.108379 0.276904
vt 0.799419 0.196170
vt 0.436532 0.049891
vt 0.395762 0.935498
vt 0.411108 0.943295
vt 0.104142 0.320678
vt 0.422869 0.963603
vt 0.072533 0.321330
vt 0.044741 0.321903
vt 0.415074 0.982708
vt 0.016949 0.322477
vt 0.016506 0.295891
vt 0.396052 0.990705
vt 0.044252 0.295080
vt 0.376947 0.982908
vt 0.071999 0.294269
vt 0.368952 0.963886
vt 0.380499 0.943456
vt 0.103555 0.293347
vt 0.338998 0.387543
vt 0.407382 0.341486
vt 0.355593 0.381507
vt 0.227281 0.307039
vt 0.407442 0.362940
vt 0.407323 0.320032
vt 0.322378 0.381586
vt 0.226397 0.278671
vt 0.395292 0.845928
vt 0.391120 0.341531
vt 0.228278 0.323092
vt 0.410132 0.851201
vt 0.391180 0.362985
vt 0.391061 0.320077
vt 0.380508 0.851357
vt 0.227529 0.294693
vt 0.568398 0.443545
vt 0.865659 0.442564
vt 0.531646 0.182297
vt 0.584715 0.975686
vt 0.582952 0.636794
vt 0.011408 0.594302
vt 0.864260 0.989795
vt 0.667665 0.430708
vt 0.556757 0.294484
vt 0.095296 0.625724
vt 0.674879 0.988667
vt 0.747003 0.429812
vt 0.645494 0.294141
vt 0.752384 0.987793
vt 0.095261 0.700635
vt 0.846536 0.440404
vt 0.985083 0.442869
vt 0.669736 0.181763
vt 0.983684 0.990100
vt 0.011344 0.731977
vt 0.842232 0.972780
vt 0.583501 0.766790
vt 0.586878 0.541373
vt 0.870477 0.544885
vt 0.670032 0.532296
vt 0.746931 0.531428
vt 0.830270 0.538625
vt 0.979742 0.545165
vt 0.607006 0.710639
vt 0.881238 0.717537
vt 0.677339 0.708487
vt 0.743602 0.707739
vt 0.968098 0.717759
vt 0.813967 0.708304
vt 0.602426 0.865904
vt 0.877493 0.875082
vt 0.677094 0.872206
vt 0.747541 0.871411
vt 0.971039 0.875321
vt 0.822048 0.863426
vt 0.523717 0.505965
vt 0.027514 0.464697
vt 0.296894 0.563194
vt 0.296799 0.763356
vt 0.027327 0.861596
vt 0.525372 0.898115
vt 0.470464 0.424813
vt 0.033515 0.377283
vt 0.367875 0.522384
vt 0.367741 0.804234
vt 0.033244 0.949014
vt 0.472806 0.979714
vt 0.434373 0.419547
vt 0.460803 0.408241
vt 0.032223 0.344726
vt 0.544342 0.039945
vt 0.384830 0.503287
vt 0.384678 0.823347
vt 0.885820 0.044924
vt 0.031921 0.981569
vt 0.436761 0.985284
vt 0.958676 0.415468
vt 0.526038 0.312832
vt 0.528413 0.168248
vt 0.006193 0.252863
vt 0.560946 0.062778
vt 0.083549 0.026454
vt 0.868561 0.067266
vt 0.365202 0.035357
vt 0.428104 0.266199
vt 0.896236 0.318209
vt 0.899648 0.163252
vt 0.546399 0.135439
vt 0.041191 0.252614
vt 0.101393 0.061796
vt 0.345161 0.069502
vt 0.393191 0.263740
vt 0.880785 0.130940
vt 0.586553 0.101781
vt 0.090179 0.253679
vt 0.130215 0.116713
vt 0.312929 0.122489
vt 0.344234 0.261709
vt 0.839740 0.098374
vt 0.654733 0.060338
vt 0.164489 0.255994
vt 0.174007 0.178823
vt 0.265301 0.181709
vt 0.269927 0.259326
vt 0.770469 0.058781
vt 0.530492 0.238444
vt 0.615134 0.436949
vt 0.626516 0.982828
vt 0.054919 0.599743
vt 0.799663 0.434865
vt 0.671325 0.237899
vt 0.054860 0.726577
vt 0.800602 0.980863
vt 0.625100 0.536581
vt 0.791948 0.534697
vt 0.639481 0.709489
vt 0.781473 0.707886
vt 0.636694 0.869359
vt 0.787867 0.867653
vt 0.169808 0.485686
vt 0.169640 0.840743
vt 0.211079 0.407150
vt 0.210835 0.919318
vt 0.220066 0.368447
vt 0.439662 0.222832
vt 0.219785 0.958029
vt 0.985177 0.230750
vt 0.017461 0.140826
vt 0.512997 0.192643
vt 0.912748 0.198456
vt 0.423934 0.153675
vt 0.049744 0.157144
vt 0.390685 0.167921
vt 0.094183 0.182824
vt 0.344713 0.190743
vt 0.157947 0.215728
vt 0.278999 0.219554
vt 0.925371 0.442679
vt 0.600688 0.181192
vt 0.923972 0.989947
vt 0.583409 0.701791
vt 0.707315 0.428573
vt 0.601196 0.312438
vt 0.713652 0.990100
vt 0.108422 0.663186
vt 0.925109 0.545029
vt 0.708468 0.530623
vt 0.924668 0.717657
vt 0.710469 0.707948
vt 0.924265 0.875202
vt 0.712330 0.872932
vt 0.522614 0.702048
vt 0.302893 0.663278
vt 0.469784 0.702271
vt 0.391068 0.663320
vt 0.433936 0.702422
vt 0.709619 0.420210
vt 0.412232 0.663330
vt 0.715552 0.010116
vt 0.710882 0.333208
vt 0.714090 0.170208
vt 0.715167 0.036504
vt 0.225213 0.004402
vt 0.713648 0.137367
vt 0.223919 0.045355
vt 0.713195 0.103684
vt 0.221943 0.107849
vt 0.216879 0.268080
vt 0.712639 0.062351
vt 0.219763 0.176819
vt 0.600908 0.238171
vt 0.218344 0.221717
vt 0.536756 0.266490
vt 0.639076 0.433784
vt 0.075583 0.607395
vt 0.648203 0.986054
vt 0.775655 0.432242
vt 0.665279 0.265993
vt 0.778994 0.984578
vt 0.075530 0.718945
vt 0.645025 0.534372
vt 0.771979 0.532938
vt 0.656377 0.708967
vt 0.764569 0.707746
vt 0.654628 0.870935
vt 0.769973 0.869634
vt 0.236119 0.509959
vt 0.235974 0.816533
vt 0.294452 0.443856
vt 0.294243 0.882692
vt 0.307342 0.412076
vt 0.465307 0.130672
vt 0.307103 0.914484
vt 0.962205 0.137890
vt 0.034337 0.080972
vt 0.515457 0.126798
vt 0.912188 0.132572
vt 0.410873 0.092875
vt 0.061802 0.107442
vt 0.381790 0.117557
vt 0.100874 0.148386
vt 0.340211 0.155951
vt 0.159960 0.196702
vt 0.278191 0.200439
vt 0.601052 0.275305
vt 0.219056 0.199189
s 0
f 4/4/1 2/2/1 8/8/1
f 4/4/2 5/5/2 3/3/2 2/2/2
f 10/10/3 1/1/3 9/9/3 8/8/3
f 6/6/1 4/4/1 8/8/1
f 6/6/4 7/7/4 5/5/4 4/4/4
f 2/2/1 10/10/1 8/8/1
f 2/2/5 3/3/5 1/1/5 10/10/5
f 8/8/6 9/9/6 7/7/6 6/6/6
f 44/88/7 52/107/7 51/106/7 43/87/7
f 13/14/8 28/45/8 27/43/8 11/11/8
f 48/99/9 56/117/9 55/114/9 47/96/9
f 45/90/10 53/109/10 52/107/10 44/88/10
f 29/50/11 16/21/11 14/16/11 28/48/11
f 57/119/12 60/127/12 62/131/12 59/123/12
f 46/94/13 54/112/13 53/110/13 45/91/13
f 17/23/7 30/52/7 29/49/7 15/20/7
f 42/82/14 58/120/14 57/118/14 41/80/14
f 47/96/15 55/114/15 54/112/15 46/94/15
f 31/53/10 20/27/10 18/24/10 30/51/10
f 50/104/16 61/128/16 58/121/16 42/85/16
f 56/116/17 49/102/17 53/111/17 54/113/17
f 21/31/13 32/57/13 31/54/13 19/26/13
f 49/102/18 60/126/18 61/129/18 50/103/18
f 49/102/17 50/103/17 52/108/17 53/111/17
f 33/59/15 24/35/15 22/32/15 32/56/15
f 41/80/19 57/118/19 59/124/19 48/98/19
f 51/105/17 52/108/17 50/103/17
f 25/37/20 34/60/20 33/58/20 23/34/20
f 56/116/21 62/132/21 60/126/21 49/102/21
f 54/113/17 55/115/17 56/116/17
f 38/72/22 35/64/22 37/69/22 40/77/22
f 48/99/23 59/125/23 62/133/23 56/117/23
f 39/74/24 36/66/24 35/64/24 38/72/24
f 28/46/25 13/15/25 15/20/25 29/49/25
f 30/51/7 18/24/7 16/21/7 29/50/7
f 30/52/10 17/23/10 19/26/10 31/54/10
f 32/56/13 22/32/13 20/28/13 31/55/13
f 32/57/15 21/31/15 23/34/15 33/58/15
f 34/63/26 26/40/26 24/35/26 33/59/26
f 34/61/27 25/38/27 11/11/27 27/43/27
f 27/44/28 38/73/28 40/78/28 34/62/28
f 26/39/29 37/70/29 35/65/29 12/12/29
f 34/63/30 40/79/30 37/71/30 26/40/30
f 28/47/31 39/75/31 38/73/31 27/44/31
f 14/16/32 36/67/32 39/76/32 28/48/32
f 12/12/33 35/65/33 36/68/33 14/17/33
f 14/18/34 42/83/34 41/81/34 12/13/34
f 16/22/35 43/86/35 42/84/35 14/19/35
f 18/25/7 44/89/7 43/86/7 16/22/7
f 20/29/10 45/92/10 44/89/10 18/25/10
f 22/33/13 46/95/13 45/93/13 20/30/13
f 24/36/15 47/97/15 46/95/15 22/33/15
f 26/41/36 48/100/36 47/97/36 24/36/36
f 12/13/37 41/81/37 48/101/37 26/42/37
f 58/122/38 61/130/38 60/127/38 57/119/38
f 43/87/39 51/106/39 50/104/39 42/85/39
f 111/225/40 115/232/40 71/156/40 63/134/40
f 137/260/41 67/145/41 73/159/41 140/265/41
f 163/295/42 113/228/42 116/233/42 166/300/42
f 143/268/43 136/258/43 70/152/43 82/172/43
f 160/290/44 134/255/44 110/222/44 157/286/44
f 159/289/45 185/323/45 161/291/45 111/224/45
f 165/299/46 72/158/46 76/164/46 167/301/46
f 140/265/47 142/267/47 76/164/47 72/158/47
f 116/233/48 74/160/48 78/167/48 118/235/48
f 139/264/49 135/256/49 63/135/49 71/157/49
f 141/266/50 78/166/50 74/161/50 139/264/50
f 117/234/51 119/236/51 79/168/51 75/162/51
f 142/267/52 77/165/52 81/171/52 144/269/52
f 168/302/53 118/235/53 120/237/53 170/304/53
f 143/268/54 82/172/54 78/166/54 141/266/54
f 119/236/55 112/226/55 64/137/55 79/168/55
f 144/269/56 138/262/56 66/144/56 80/170/56
f 170/304/57 164/297/57 68/147/57 81/171/57
f 162/293/58 66/143/58 84/176/58 171/305/58
f 138/263/59 68/148/59 85/177/59 146/271/59
f 114/230/60 70/153/60 86/178/60 122/239/60
f 136/259/61 64/138/61 83/174/61 145/270/61
f 171/305/62 84/176/62 88/182/62 173/307/62
f 146/271/63 148/273/63 88/182/63 84/176/63
f 122/239/64 86/178/64 90/184/64 124/241/64
f 145/270/65 83/174/65 87/180/65 147/272/65
f 123/240/66 173/307/66 175/309/66 125/242/66
f 148/273/67 89/183/67 93/191/67 150/276/67
f 124/241/68 90/184/68 94/193/68 126/244/68
f 147/272/69 87/180/69 91/186/69 149/274/69
f 125/243/17 127/247/17 95/196/17 91/187/17
f 150/277/70 93/192/70 97/201/70 152/280/70
f 126/245/17 94/195/17 98/204/17 128/248/17
f 149/275/17 91/187/17 95/196/17 151/278/17
f 127/246/71 177/313/71 179/317/71 129/250/71
f 152/281/72 97/202/72 101/209/72 154/283/72
f 128/249/73 98/203/73 102/210/73 130/251/73
f 151/279/74 95/197/74 99/206/74 153/282/74
f 179/317/75 100/208/75 104/214/75 181/319/75
f 154/283/76 101/209/76 105/215/76 156/285/76
f 130/251/77 102/210/77 106/216/77 132/253/77
f 153/282/78 99/206/78 103/212/78 155/284/78
f 181/319/79 104/214/79 108/220/79 183/321/79
f 156/285/80 105/215/80 109/221/80 158/288/80
f 132/253/81 106/216/81 110/222/81 134/255/81
f 155/284/82 103/212/82 107/218/82 157/287/82
f 161/292/83 65/141/83 72/158/83 165/299/83
f 113/228/84 69/149/84 74/160/84 116/233/84
f 160/290/85 186/324/85 184/322/85 134/255/85
f 159/289/45 111/224/45 63/136/45 135/257/45
f 117/234/86 75/162/86 71/156/86 115/232/86
f 118/235/87 168/302/87 166/300/87 116/233/87
f 117/234/88 167/301/88 169/303/88 119/236/88
f 118/235/89 78/167/89 82/173/89 120/237/89
f 119/236/90 169/303/90 162/294/90 112/226/90
f 120/237/91 82/173/91 70/154/91 114/231/91
f 121/238/92 83/175/92 64/139/92 112/227/92
f 122/239/93 172/306/93 164/298/93 114/230/93
f 123/240/94 87/181/94 83/175/94 121/238/94
f 124/241/95 174/308/95 172/306/95 122/239/95
f 125/242/96 91/188/96 87/181/96 123/240/96
f 176/311/97 93/191/97 89/183/97 174/308/97
f 175/310/98 92/189/98 96/199/98 177/314/98
f 178/315/99 97/201/99 93/192/99 176/312/99
f 129/250/100 99/207/100 95/198/100 127/246/100
f 180/318/101 101/209/101 97/202/101 178/316/101
f 131/252/102 103/213/102 99/207/102 129/250/102
f 182/320/103 105/215/103 101/209/103 180/318/103
f 133/254/104 107/219/104 103/213/104 131/252/104
f 134/255/105 184/322/105 182/320/105 132/253/105
f 140/265/106 72/158/106 65/141/106 137/260/106
f 143/268/107 79/169/107 64/140/107 136/258/107
f 157/286/108 107/219/108 133/254/108 160/290/108
f 185/323/45 159/289/45 113/229/45 163/296/45
f 140/265/109 73/159/109 77/165/109 142/267/109
f 139/264/110 74/161/110 69/150/110 135/256/110
f 139/264/111 71/157/111 75/163/111 141/266/111
f 144/269/112 80/170/112 76/164/112 142/267/112
f 141/266/113 75/163/113 79/169/113 143/268/113
f 144/269/114 81/171/114 68/147/114 138/262/114
f 146/271/115 84/176/115 66/143/115 138/263/115
f 145/270/116 86/179/116 70/155/116 136/259/116
f 146/271/117 85/177/117 89/183/117 148/273/117
f 147/272/118 90/185/118 86/179/118 145/270/118
f 150/276/119 92/190/119 88/182/119 148/273/119
f 149/274/120 94/194/120 90/185/120 147/272/120
f 152/280/121 96/199/121 92/189/121 150/277/121
f 151/278/17 98/204/17 94/195/17 149/275/17
f 154/283/122 100/208/122 96/200/122 152/281/122
f 153/282/123 102/211/123 98/205/123 151/279/123
f 156/285/124 104/214/124 100/208/124 154/283/124
f 155/284/125 106/217/125 102/211/125 153/282/125
f 158/288/126 108/220/126 104/214/126 156/285/126
f 157/287/127 110/223/127 106/217/127 155/284/127
f 186/324/128 183/321/128 108/220/128 158/288/128
f 135/257/45 69/151/45 113/229/45 159/289/45
f 166/300/129 73/159/129 67/145/129 163/295/129
f 185/323/45 137/261/45 65/142/45 161/291/45
f 167/301/130 117/234/130 115/232/130 165/299/130
f 170/304/131 81/171/131 77/165/131 168/302/131
f 170/304/132 120/237/132 114/231/132 164/297/132
f 171/305/133 121/238/133 112/227/133 162/293/133
f 173/307/134 123/240/134 121/238/134 171/305/134
f 173/307/135 88/182/135 92/190/135 175/309/135
f 177/313/136 96/200/136 100/208/136 179/317/136
f 181/319/137 131/252/137 129/250/137 179/317/137
f 183/321/138 133/254/138 131/252/138 181/319/138
f 165/299/139 115/232/139 111/225/139 161/292/139
f 186/324/140 158/288/140 109/221/140 184/322/140
f 168/302/141 77/165/141 73/159/141 166/300/141
f 167/301/142 76/164/142 80/170/142 169/303/142
f 169/303/143 80/170/143 66/144/143 162/294/143
f 172/306/144 85/177/144 68/148/144 164/298/144
f 174/308/145 89/183/145 85/177/145 172/306/145
f 174/308/146 124/241/146 126/244/146 176/311/146
f 177/314/147 127/247/147 125/243/147 175/310/147
f 176/312/148 126/245/148 128/248/148 178/315/148
f 178/316/149 128/249/149 130/251/149 180/318/149
f 180/318/150 130/251/150 132/253/150 182/320/150
f 184/322/151 109/221/151 105/215/151 182/320/151
f 163/296/45 67/146/45 137/261/45 185/323/45
f 186/324/152 160/290/152 133/254/152 183/321/152
